<svg viewBox="0 0 330 200" xmlns="http://www.w3.org/2000/svg"><g><g><g><g><g><line x1="82.47800064086914" y1="177.95999908447266" x2="77.47800064086914" y2="177.95999908447266" style="visibility: inherit;" fill="rgb(0, 0, 0)" stroke="rgb(204, 204, 204)" stroke-width="1px"></line><line x1="82.47800064086914" y1="165.2485705784389" x2="77.47800064086914" y2="165.2485705784389" style="visibility: inherit;" fill="rgb(0, 0, 0)" stroke="rgb(204, 204, 204)" stroke-width="1px"></line><line x1="82.47800064086914" y1="152.53714207240515" x2="77.47800064086914" y2="152.53714207240515" style="visibility: inherit;" fill="rgb(0, 0, 0)" stroke="rgb(204, 204, 204)" stroke-width="1px"></line><line x1="82.47800064086914" y1="139.82571356637138" x2="77.47800064086914" y2="139.82571356637138" style="visibility: inherit;" fill="rgb(0, 0, 0)" stroke="rgb(204, 204, 204)" stroke-width="1px"></line><line x1="82.47800064086914" y1="127.11428506033761" x2="77.47800064086914" y2="127.11428506033761" style="visibility: inherit;" fill="rgb(0, 0, 0)" stroke="rgb(204, 204, 204)" stroke-width="1px"></line><line x1="82.47800064086914" y1="114.40285655430385" x2="77.47800064086914" y2="114.40285655430385" style="visibility: inherit;" fill="rgb(0, 0, 0)" stroke="rgb(204, 204, 204)" stroke-width="1px"></line><line x1="82.47800064086914" y1="101.6914280482701" x2="77.47800064086914" y2="101.6914280482701" style="visibility: inherit;" fill="rgb(0, 0, 0)" stroke="rgb(204, 204, 204)" stroke-width="1px"></line><line x1="82.47800064086914" y1="88.97999954223633" x2="77.47800064086914" y2="88.97999954223633" style="visibility: inherit;" fill="rgb(0, 0, 0)" stroke="rgb(204, 204, 204)" stroke-width="1px"></line><line x1="82.47800064086914" y1="76.26857103620257" x2="77.47800064086914" y2="76.26857103620257" style="visibility: inherit;" fill="rgb(0, 0, 0)" stroke="rgb(204, 204, 204)" stroke-width="1px"></line><line x1="82.47800064086914" y1="63.557142530168804" x2="77.47800064086914" y2="63.557142530168804" style="visibility: inherit;" fill="rgb(0, 0, 0)" stroke="rgb(204, 204, 204)" stroke-width="1px"></line><line x1="82.47800064086914" y1="50.84571402413505" x2="77.47800064086914" y2="50.84571402413505" style="visibility: inherit;" fill="rgb(0, 0, 0)" stroke="rgb(204, 204, 204)" stroke-width="1px"></line><line x1="82.47800064086914" y1="38.13428551810128" x2="77.47800064086914" y2="38.13428551810128" style="visibility: inherit;" fill="rgb(0, 0, 0)" stroke="rgb(204, 204, 204)" stroke-width="1px"></line><line x1="82.47800064086914" y1="25.42285701206754" x2="77.47800064086914" y2="25.42285701206754" style="visibility: inherit;" fill="rgb(0, 0, 0)" stroke="rgb(204, 204, 204)" stroke-width="1px"></line><line x1="82.47800064086914" y1="12.71142850603377" x2="77.47800064086914" y2="12.71142850603377" style="visibility: inherit;" fill="rgb(0, 0, 0)" stroke="rgb(204, 204, 204)" stroke-width="1px"></line><line x1="82.47800064086914" y1="0" x2="77.47800064086914" y2="0" style="visibility: inherit;" fill="rgb(0, 0, 0)" stroke="rgb(204, 204, 204)" stroke-width="1px"></line></g><g transform="translate(72.47800064086914, 0)"><text style="text-anchor: end; visibility: hidden; font-family: &quot;Helvetica Neue&quot;, sans-serif; font-size: 12px; font-weight: 200;" x="0" y="177.95999908447266" dx="0em" dy="0.3em" fill="rgb(50, 49, 63)" stroke="none" stroke-width="1px">-3e+3</text><text style="text-anchor: end; visibility: inherit; font-family: &quot;Helvetica Neue&quot;, sans-serif; font-size: 12px; font-weight: 200;" x="0" y="165.2485705784389" dx="0em" dy="0.3em" fill="rgb(50, 49, 63)" stroke="none" stroke-width="1px">-2.5e+3</text><text style="text-anchor: end; visibility: hidden; font-family: &quot;Helvetica Neue&quot;, sans-serif; font-size: 12px; font-weight: 200;" x="0" y="152.53714207240515" dx="0em" dy="0.3em" fill="rgb(50, 49, 63)" stroke="none" stroke-width="1px">-2e+3</text><text style="text-anchor: end; visibility: inherit; font-family: &quot;Helvetica Neue&quot;, sans-serif; font-size: 12px; font-weight: 200;" x="0" y="139.82571356637138" dx="0em" dy="0.3em" fill="rgb(50, 49, 63)" stroke="none" stroke-width="1px">-1.5e+3</text><text style="text-anchor: end; visibility: hidden; font-family: &quot;Helvetica Neue&quot;, sans-serif; font-size: 12px; font-weight: 200;" x="0" y="127.11428506033761" dx="0em" dy="0.3em" fill="rgb(50, 49, 63)" stroke="none" stroke-width="1px">-1e+3</text><text style="text-anchor: end; visibility: inherit; font-family: &quot;Helvetica Neue&quot;, sans-serif; font-size: 12px; font-weight: 200;" x="0" y="114.40285655430385" dx="0em" dy="0.3em" fill="rgb(50, 49, 63)" stroke="none" stroke-width="1px">-500</text><text style="text-anchor: end; visibility: hidden; font-family: &quot;Helvetica Neue&quot;, sans-serif; font-size: 12px; font-weight: 200;" x="0" y="101.6914280482701" dx="0em" dy="0.3em" fill="rgb(50, 49, 63)" stroke="none" stroke-width="1px">0</text><text style="text-anchor: end; visibility: inherit; font-family: &quot;Helvetica Neue&quot;, sans-serif; font-size: 12px; font-weight: 200;" x="0" y="88.97999954223633" dx="0em" dy="0.3em" fill="rgb(50, 49, 63)" stroke="none" stroke-width="1px">500</text><text style="text-anchor: end; visibility: hidden; font-family: &quot;Helvetica Neue&quot;, sans-serif; font-size: 12px; font-weight: 200;" x="0" y="76.26857103620257" dx="0em" dy="0.3em" fill="rgb(50, 49, 63)" stroke="none" stroke-width="1px">1e+3</text><text style="text-anchor: end; visibility: inherit; font-family: &quot;Helvetica Neue&quot;, sans-serif; font-size: 12px; font-weight: 200;" x="0" y="63.557142530168804" dx="0em" dy="0.3em" fill="rgb(50, 49, 63)" stroke="none" stroke-width="1px">1.5e+3</text><text style="text-anchor: end; visibility: hidden; font-family: &quot;Helvetica Neue&quot;, sans-serif; font-size: 12px; font-weight: 200;" x="0" y="50.84571402413505" dx="0em" dy="0.3em" fill="rgb(50, 49, 63)" stroke="none" stroke-width="1px">2e+3</text><text style="text-anchor: end; visibility: inherit; font-family: &quot;Helvetica Neue&quot;, sans-serif; font-size: 12px; font-weight: 200;" x="0" y="38.13428551810128" dx="0em" dy="0.3em" fill="rgb(50, 49, 63)" stroke="none" stroke-width="1px">2.5e+3</text><text style="text-anchor: end; visibility: hidden; font-family: &quot;Helvetica Neue&quot;, sans-serif; font-size: 12px; font-weight: 200;" x="0" y="25.42285701206754" dx="0em" dy="0.3em" fill="rgb(50, 49, 63)" stroke="none" stroke-width="1px">3e+3</text><text style="text-anchor: end; visibility: inherit; font-family: &quot;Helvetica Neue&quot;, sans-serif; font-size: 12px; font-weight: 200;" x="0" y="12.71142850603377" dx="0em" dy="0.3em" fill="rgb(50, 49, 63)" stroke="none" stroke-width="1px">3.5e+3</text><text style="text-anchor: end; visibility: hidden; font-family: &quot;Helvetica Neue&quot;, sans-serif; font-size: 12px; font-weight: 200;" x="0" y="0" dx="0em" dy="0.3em" fill="rgb(50, 49, 63)" stroke="none" stroke-width="1px">4e+3</text></g><line x1="82.47800064086914" y1="0" x2="82.47800064086914" y2="177.95999908447266" fill="rgb(0, 0, 0)" stroke="rgb(204, 204, 204)" stroke-width="1px"></line></g></g><g transform="translate(82, 0)" clip-path="url(#clip_0)"><clipPath id="clip_0"><rect width="247" height="177"></rect></clipPath><g><g><g><line x1="0" y1="0" x2="0" y2="177.95999908447266" fill="rgb(0, 0, 0)" stroke="rgb(60, 60, 60)" stroke-width="1px" opacity="0.25"></line><line x1="17.68014281136649" y1="0" x2="17.68014281136649" y2="177.95999908447266" fill="rgb(0, 0, 0)" stroke="rgb(60, 60, 60)" stroke-width="1px" opacity="0.25"></line><line x1="35.36028562273298" y1="0" x2="35.36028562273298" y2="177.95999908447266" fill="rgb(0, 0, 0)" stroke="rgb(60, 60, 60)" stroke-width="1px" opacity="0.25"></line><line x1="53.04042843409947" y1="0" x2="53.04042843409947" y2="177.95999908447266" fill="rgb(0, 0, 0)" stroke="rgb(60, 60, 60)" stroke-width="1px" opacity="0.25"></line><line x1="70.72057124546596" y1="0" x2="70.72057124546596" y2="177.95999908447266" fill="rgb(0, 0, 0)" stroke="rgb(60, 60, 60)" stroke-width="1px" opacity="0.25"></line><line x1="88.40071405683246" y1="0" x2="88.40071405683246" y2="177.95999908447266" fill="rgb(0, 0, 0)" stroke="rgb(60, 60, 60)" stroke-width="1px" opacity="0.25"></line><line x1="106.08085686819894" y1="0" x2="106.08085686819894" y2="177.95999908447266" fill="rgb(0, 0, 0)" stroke="rgb(60, 60, 60)" stroke-width="1px" opacity="0.25"></line><line x1="123.76099967956543" y1="0" x2="123.76099967956543" y2="177.95999908447266" fill="rgb(0, 0, 0)" stroke="rgb(60, 60, 60)" stroke-width="1px" opacity="0.25"></line><line x1="141.44114249093192" y1="0" x2="141.44114249093192" y2="177.95999908447266" fill="rgb(0, 0, 0)" stroke="rgb(60, 60, 60)" stroke-width="1px" opacity="0.25"></line><line x1="159.12128530229842" y1="0" x2="159.12128530229842" y2="177.95999908447266" fill="rgb(0, 0, 0)" stroke="rgb(60, 60, 60)" stroke-width="1px" opacity="0.25"></line><line x1="176.8014281136649" y1="0" x2="176.8014281136649" y2="177.95999908447266" fill="rgb(0, 0, 0)" stroke="rgb(60, 60, 60)" stroke-width="1px" opacity="0.25"></line><line x1="194.48157092503138" y1="0" x2="194.48157092503138" y2="177.95999908447266" fill="rgb(0, 0, 0)" stroke="rgb(60, 60, 60)" stroke-width="1px" opacity="0.25"></line><line x1="212.16171373639787" y1="0" x2="212.16171373639787" y2="177.95999908447266" fill="rgb(0, 0, 0)" stroke="rgb(60, 60, 60)" stroke-width="1px" opacity="0.25"></line><line x1="229.84185654776437" y1="0" x2="229.84185654776437" y2="177.95999908447266" fill="rgb(0, 0, 0)" stroke="rgb(60, 60, 60)" stroke-width="1px" opacity="0.25"></line><line x1="247.52199935913086" y1="0" x2="247.52199935913086" y2="177.95999908447266" fill="rgb(0, 0, 0)" stroke="rgb(60, 60, 60)" stroke-width="1px" opacity="0.25"></line></g><g><line x1="0" y1="177.95999908447266" x2="247.52199935913086" y2="177.95999908447266" fill="rgb(0, 0, 0)" stroke="rgb(60, 60, 60)" stroke-width="1px" opacity="0.25"></line><line x1="0" y1="165.2485705784389" x2="247.52199935913086" y2="165.2485705784389" fill="rgb(0, 0, 0)" stroke="rgb(60, 60, 60)" stroke-width="1px" opacity="0.25"></line><line x1="0" y1="152.53714207240515" x2="247.52199935913086" y2="152.53714207240515" fill="rgb(0, 0, 0)" stroke="rgb(60, 60, 60)" stroke-width="1px" opacity="0.25"></line><line x1="0" y1="139.82571356637138" x2="247.52199935913086" y2="139.82571356637138" fill="rgb(0, 0, 0)" stroke="rgb(60, 60, 60)" stroke-width="1px" opacity="0.25"></line><line x1="0" y1="127.11428506033761" x2="247.52199935913086" y2="127.11428506033761" fill="rgb(0, 0, 0)" stroke="rgb(60, 60, 60)" stroke-width="1px" opacity="0.25"></line><line x1="0" y1="114.40285655430385" x2="247.52199935913086" y2="114.40285655430385" fill="rgb(0, 0, 0)" stroke="rgb(60, 60, 60)" stroke-width="1px" opacity="0.25"></line><line x1="0" y1="101.6914280482701" x2="247.52199935913086" y2="101.6914280482701" fill="rgb(0, 0, 0)" stroke="rgb(60, 60, 60)" stroke-width="1px" opacity="0.25"></line><line x1="0" y1="88.97999954223633" x2="247.52199935913086" y2="88.97999954223633" fill="rgb(0, 0, 0)" stroke="rgb(60, 60, 60)" stroke-width="1px" opacity="0.25"></line><line x1="0" y1="76.26857103620257" x2="247.52199935913086" y2="76.26857103620257" fill="rgb(0, 0, 0)" stroke="rgb(60, 60, 60)" stroke-width="1px" opacity="0.25"></line><line x1="0" y1="63.557142530168804" x2="247.52199935913086" y2="63.557142530168804" fill="rgb(0, 0, 0)" stroke="rgb(60, 60, 60)" stroke-width="1px" opacity="0.25"></line><line x1="0" y1="50.84571402413505" x2="247.52199935913086" y2="50.84571402413505" fill="rgb(0, 0, 0)" stroke="rgb(60, 60, 60)" stroke-width="1px" opacity="0.25"></line><line x1="0" y1="38.13428551810128" x2="247.52199935913086" y2="38.13428551810128" fill="rgb(0, 0, 0)" stroke="rgb(60, 60, 60)" stroke-width="1px" opacity="0.25"></line><line x1="0" y1="25.42285701206754" x2="247.52199935913086" y2="25.42285701206754" fill="rgb(0, 0, 0)" stroke="rgb(60, 60, 60)" stroke-width="1px" opacity="0.25"></line><line x1="0" y1="12.71142850603377" x2="247.52199935913086" y2="12.71142850603377" fill="rgb(0, 0, 0)" stroke="rgb(60, 60, 60)" stroke-width="1px" opacity="0.25"></line><line x1="0" y1="0" x2="247.52199935913086" y2="0" fill="rgb(0, 0, 0)" stroke="rgb(60, 60, 60)" stroke-width="1px" opacity="0.25"></line></g></g></g><g><g><line x1="0" y1="101.6914280482701" x2="247.52199935913086" y2="101.6914280482701" fill="rgb(0, 0, 0)" stroke="rgb(153, 153, 153)" stroke-width="1.5px"></line></g></g><g><g><line x1="17.68014281136649" y1="0" x2="17.68014281136649" y2="177.95999908447266" fill="rgb(0, 0, 0)" stroke="rgb(153, 153, 153)" stroke-width="1.5px"></line></g></g><g><g><g><g><g><path style="fill: none;" stroke="rgb(204, 51, 17)" stroke-width="2px" d="M17.856944239480157,100.9785912378308L18.03374566759382,96.0034947947271L18.38734852382115,95.42544504074925L18.564149951934812,94.0625351131077L18.740951380048482,81.63276328841009L18.917752808162145,68.76905859641346L19.09455423627581,75.51649604113489L19.271355664389475,76.25489616043889L19.448157092503138,80.62753415593747L19.6249585206168,86.79828461885005L19.80175994873047,94.08846591672325L19.978561376844134,103.01899035149229L20.1553628049578,110.78692159268829L20.332164233071463,98.77715323498735L20.508965661185126,100.12349933304881L20.685767089298793,113.61294861208187L20.86256851741246,111.15008958846454L21.039369945526126,114.53921128524419L21.21617137363979,110.73289660864967L21.39297280175345,118.8130848996566L21.569774229867118,119.49839364494476L21.74657565798078,112.67301833296415L21.923377086094447,121.20208854194291L22.100178514208114,130.95072342086178L22.276979942321777,126.58148243796225L22.453781370435443,131.4222448154501L22.630582798549106,127.21846287480598L23.160987082890102,98.39325268574079L23.33778851100377,87.17635729868103L23.514589939117432,85.74085531247182L23.691391367231095,77.42751883485978L23.86819279534476,99.72510423533012L24.22179565157209,94.70779811125955L24.398597079685757,87.73015655796172L24.57539850779942,87.2995591698124L24.752199935913087,92.26076549392683L24.92900136402675,98.41653080145088L25.282604220254083,97.56299459244984L25.459405648367746,65.8169799752222L25.636207076481412,60.85364275534582L25.813008504595075,52.0470702249372L25.989809932708738,58.936097520564815L26.166611360822408,66.98265191488709L26.520214217049734,86.02588598004264L26.6970156451634,114.85835931825966L27.05061850139073,130.99468074676471L27.227419929504396,145.76666324613836L27.40422135761806,123.02709596493983L27.581022785731726,126.08757083997338L27.75782421384539,121.50262143708008L27.93462564195905,121.82938694718973L28.288228498186385,132.24610873089037L28.46502992630005,139.14844865828871L28.641831354413714,115.07421718872644L28.818632782527377,102.54947182448359L28.995434210641044,91.8201039168875L29.172235638754707,82.06781710640699L29.349037066868373,92.4401259036005L29.52583849498204,105.52877651556003L29.702639923095703,98.28648879179472L29.87944135120937,105.15271410666466L30.056242779323032,97.46955532711081L30.40984563555036,98.24373699437875L30.586647063664028,79.92964830028617L30.763448491777694,117.60421370612642L30.940249919891357,111.48353155154021L31.117051348005024,99.11887544829214L31.293852776118683,86.69217533537041L31.470654204232353,67.73834966318722L31.64745563234602,55.28067274422223L31.82425706045968,44.03971949669935L32.17785991668701,59.02179192113985L32.35466134480068,80.36351920934841L32.70826420102801,3.5073659074549255L32.88506562914167,14.928990634219844L33.061867057255334,31.957544594419062L33.238668485369004,35.91406280138378L33.41546991348267,51.43858671641219L33.59227134159633,18.486039075570204L33.94587419782366,21.906718606541517L34.122675625937326,-14.327846742081078L34.65307991027832,-20.08110632477647L34.829881338391985,30.663833421586276L35.00668276650565,34.25084318211546L35.36028562273298,60.36648712325565L35.537087050846644,104.21344762627294L35.713888478960314,148.4822452761618L35.89068990707397,149.17723471363706L36.06749133518764,100.97587387147972L36.2442927633013,90.30262783797284L36.421094191414966,64.48438694369236L36.597895619528636,61.76359336865217L36.7746970476423,44.64741084829629L36.95149847575597,62.13193637217485L37.128299903869625,71.68718593976685L37.305101331983295,56.451390881608134L37.481902760096965,44.10869828177667L37.65870418821062,89.37019157013405L37.83550561632429,64.42909306016315L38.012307044437954,102.09533709978056L38.18910847255162,92.62851965011527L38.36590990066528,79.38093103390915L38.54271132877895,115.16258506933879L38.71951275689261,124.92757079602467L38.896314185006275,113.84885782414906L39.073115613119946,116.99313446846503L39.2499170412336,124.59238982427024L39.42671846934727,142.86896464429248L39.60351989746094,123.3767984331598L39.780321325574604,112.57027323097049L39.95712275368827,84.30873625465323L40.13392418180193,97.06907449165054L40.3107256099156,120.21603443981968L40.664328466142926,156.85223425161522L40.841129894256596,166.9093979811799L41.371534178597585,148.2761457183194L41.54833560671125,128.3510135903881L41.90193846293858,181.69168392354823L42.07873989105225,142.96972340270264L42.43234274727958,176.52869073840014L42.7859456035069,102.03133938712055L42.96274703162057,93.05786313251166L43.139548459734236,130.98108876987888L43.3163498878479,141.55641319308637L43.49315131596156,136.82070511530952L43.66995274407523,172.79720517488366L44.02355560030256,173.8934861989405L44.20035702841623,163.8979535727924L44.37715845652989,144.87222843046902L44.553959884643554,90.70265395322562L44.90756274087089,87.7326082365295L45.08436416898455,97.76143285082121L45.26116559709821,61.49932552454291L45.43796702521188,82.19778014440483L45.61476845332554,79.17855744477988L45.79156988143921,80.6159890589254L45.96837130955288,85.25167179477266L46.321974165780205,117.67504392069546L46.49877559389387,107.47030476733593L46.85237845012119,82.89824836485954L47.029179878234864,101.51721579568343L47.38278273446219,81.76504022941361L47.55958416257586,74.29312122070975L47.73638559068952,87.0829755373139L48.089988446916855,74.34558760471829L48.26678987503052,66.98096603316945L48.44359130314418,75.06893808799194L48.797194159371514,90.66284710464339L48.97399558748518,96.85827509015645L49.15079701559884,124.07955438320593L49.32759844371251,103.25421773157065L49.681201299939836,130.9398820147111L49.8580027280535,107.1329709245751L50.03480415616717,95.18885289372281L50.21160558428083,102.97154723642934L50.388407012394495,115.29010791502188L50.565208440508165,98.87189852944334L50.74200986862182,122.6132943558232L50.91881129673549,112.49002625070268L51.095612724849154,111.0107320613055L51.272414152962824,113.69563763966362L51.44921558107649,90.95809779894371L51.62601700919015,96.55167002834177L52.156421293531146,100.81374079516752L52.863627005985805,101.83250510023208L53.04042843409947,100.62565087750903L53.21722986221313,46.63406254699447L53.3940312903268,47.383355488967055L53.57083271844047,39.55057498651118L53.74763414655413,63.498224446966276L54.10123700278146,38.956396766375406L54.27803843089512,44.741347599394885L54.45483985900879,20.693097676172016L54.631641287122456,48.73790219718697L54.80844271523612,65.89069923445362L55.33884699957711,77.78949765161927L55.51564842769078,93.83070114651069L55.69244985580445,142.66489106943405L55.8692512839181,167.26148079817838L56.04605271203177,185.89031048221494L56.39965556825911,189.7820501330468L56.57645699637277,146.66661747003195L56.75325842448643,140.6669327498178L56.9300598526001,121.98694620255986L57.10686128071376,88.61034289663493L57.28366270882743,116.84408054963517L57.637265565054754,116.59694045349984L57.814066993168424,138.0518238673886L57.99086842128209,111.88858695504862L58.34447127750941,134.76914608790105L58.52127270562308,121.37914100031759L58.698074133736746,112.82586365540351L58.87487556185041,144.94023137069874L59.05167698996408,101.29107172778768L59.22847841807774,92.63449066448113L59.405279846191405,99.61248884254678L59.75888270241874,120.16102693558588L59.9356841305324,105.09928285192893L60.289286986759734,52.788631258368994L60.46608841487339,83.87382533766126L60.64288984298706,111.56743075117986L60.99649269921439,138.06375452617777L61.173294127328056,129.4284830170334L61.35009555544172,129.57542703695447L61.52689698355539,103.15392030404391L61.703698411669045,106.78157116405538L61.880499839782715,115.77856486116664L62.057301267896385,114.7460427108752L62.23410269601005,109.14038232403423L62.41090412412372,128.08369514919718L62.58770555223737,78.07040792790318L62.76450698035104,72.38702186517312L62.94130840846471,77.43248932463283L63.11810983657837,106.76649333738307L63.4717126928057,89.53503549719467L63.64851412091936,83.83203132576384L63.82531554903302,80.54559783040862L64.0021169771467,81.75151011735232L64.35571983337402,90.79525770696254L64.53252126148769,82.33719475489255L64.70932268960136,92.09917281629644L65.06292554582868,45.146024477953745L65.41652840205602,67.23739318509593L65.77013125828334,61.38484784243042L65.946932686397,63.29223983406342L66.12373411451067,34.89924553246158L66.30053554262433,60.06373283956259L66.47733697073801,72.05646873060202L66.83093982696533,118.19890240007933L67.007741255079,159.26325736062614L67.18454268319266,141.8803309498026L67.36134411130632,145.23365868589377L67.53814553941999,151.95456543937115L67.71494696753366,113.5854781771394L67.89174839564733,163.01073947302558L68.06854982376099,179.60961061213283L68.95255696432932,109.12074124677936L69.30615982055664,116.86177001566381L69.4829612486703,116.76744787268635L69.83656410489763,90.68058655830484L70.0133655330113,82.56060878230824L70.19016696112497,58.86126659407175L70.36696838923864,44.85197564725706L70.54376981735228,50.634021900476554L70.72057124546596,68.17709323866225L70.89737267357962,88.11555513667766L71.07417410169329,124.16866306255383L71.25097552980695,116.75091761030583L71.42777695792063,108.66086049118321L71.60457838603429,89.70912965877635L72.13498267037528,77.39161926616676L72.31178409848894,77.00919860075699L72.4885855266026,54.19922275911905L72.66538695471628,75.62964465762909L72.84218838282993,85.4516230600199L73.19579123905727,75.86814427379377L73.37259266717093,90.66933249641234L73.5493940952846,93.50582835905145L73.72619552339827,66.17063838679341L73.90299695151194,21.54040448032916L74.07979837962559,62.835859388715306L74.25659980773925,87.32957854491933L74.43340123585293,85.71234606794715L74.61020266396659,39.75391254947843L74.78700409208025,60.04550354663168L74.96380552019393,73.31651044518257L75.14060694830758,98.5491079385663L75.31740837642124,84.36362724960904L75.4942098045349,82.78974033677372L75.67101123264858,69.81333159362742L75.84781266076224,51.608834272728814L76.02461408887591,75.61072114701561L76.20141551698958,107.49319765403061L76.37821694510323,132.1991309837362L76.73181980133056,110.35728791986334L77.0854226575579,108.91888795204997L77.26222408567156,64.10032856831364L77.43902551378523,30.801520925406976L77.61582694189889,46.838840486340445L77.79262837001255,38.00953545215043L77.96942979812623,64.11290585154666L78.14623122623989,49.642655415160306L78.32303265435355,73.3827621223663L78.4998340824672,108.35185811492065L78.67663551058088,108.05353406782989L78.85343693869454,110.01234123192077L79.0302383668082,123.52617152854604L79.20703979492188,121.00847654821442L79.38384122303555,149.93959158855205L79.56064265114921,137.8515039196518L79.73744407926286,149.05179992398666L79.91424550737653,155.21702076610828L80.0910469354902,134.41855751693305L80.26784836360386,123.03865695596797L80.44464979171754,110.00520631075425L80.6214512198312,89.81030511185622L80.79825264794485,77.88612173448298L80.97505407605851,87.76197786915522L81.15185550417219,104.79429202169767L81.32865693228585,98.78060458664913L81.50545836039952,96.50929502202933L81.68225978851319,118.56534477025666L81.85906121662686,79.38318979031835L82.0358626447405,119.3069547622616L82.21266407285418,124.73956720374713L82.38946550096784,156.60676633510582L82.56626692908151,168.6728205513484L82.74306835719517,151.1227476217674L82.91986978530885,126.6495993705598L83.27347264153616,114.54290809945799L83.45027406964984,77.8314430818263L83.6270754977635,78.27540783635969L83.80387692587716,95.3619148612491L83.98067835399083,119.260627675186L84.1574797821045,139.4506077762944L84.33428121021815,141.47064507804237L84.51108263833181,93.00544780515622L84.68788406644549,90.54776972503895L84.86468549455915,113.72279796217106L85.21828835078648,128.6830985647125L85.39508977890014,141.07425596951416L85.74869263512747,106.882123652344L85.92549406324115,90.70958520453426L86.10229549135481,82.02266950840068L86.27909691946847,93.28763209244212L86.45589834758213,89.23599508569887L86.80950120380946,90.06896225862539L86.98630263192312,72.5534627697386L87.1631040600368,82.17697481896062L87.33990548815046,130.8381607892479L87.69350834437779,116.25703605853741L87.87030977249145,103.88077854227707L88.04711120060512,79.36566786031143L88.22391262871878,113.51299605714314L88.40071405683246,112.9929021847201L88.75431691305978,146.9671376101932L88.93111834117344,153.45356417588962L89.10791976928711,144.66818267772527L89.46152262551443,128.07662820368552L89.63832405362811,144.82353333720056L89.99192690985542,130.8769511837375L90.34552976608276,135.46585083587502L90.52233119419643,107.6296058125898L90.69913262231009,111.17897409040624L91.05273547853743,143.45576056721612L91.22953690665108,141.2257334565927L91.40633833476475,150.6988969922677L91.75994119099208,123.55786523073066L91.93674261910576,113.84476736244616L92.11354404721942,64.63580425812223L92.29034547533307,120.92042518436162L92.46714690344673,111.72967613452917L92.64394833156041,102.3463268827891L92.82074975967407,90.04611813775414L93.17435261590141,38.25144688490772L93.52795547212872,58.27008545514623L93.88155832835606,69.28795144226926L94.23516118458339,74.53271567152628L94.76556546892438,99.28526466159614L94.94236689703806,116.95949513357189L95.29596975326538,96.75365607707376L95.47277118137904,107.86360650126892L95.64957260949272,85.88779016207326L95.82637403760637,65.2083726074956L96.00317546572003,56.11239128584269L96.35677832194737,39.09454932969413L96.53357975006104,51.22418013777491L96.7103811781747,46.02778724942644L96.88718260628836,55.30146092140987L97.06398403440203,69.10419159694158L97.24078546251569,54.384675143783724L97.41758689062937,88.77077101107449L97.59438831874303,119.97398357820043L97.77118974685669,111.677620451023L97.94799117497035,77.83321616277216L98.12479260308402,109.95497666032792L98.30159403119768,112.960363086525L98.65519688742502,102.166035397365L98.83199831553868,93.91793975422829L99.00879974365235,82.23208824733659L99.18560117176601,89.45473963946709L99.36240259987967,94.35567318855756L99.53920402799334,84.88945637076539L99.716005456107,43.60204550180825L99.89280688422068,28.264876081692307L100.06960831233434,70.54284460984128L100.246409740448,98.95955287702293L100.42321116856166,142.2145699393227L100.60001259667533,130.39478265486235L100.77681402478899,121.16477526495764L100.95361545290265,92.9795416480355L101.13041688101633,92.49419561794012L101.30721830913,80.12806834756759L101.48401973724364,62.65200620448921L101.66082116535732,56.91198552129171L101.83762259347098,48.05647640738184L102.19122544969831,58.493559077130115L102.36802687781199,58.26116465653739L102.89843116215297,56.48243078520511L103.07523259026664,63.58490428933389L103.2520340183803,106.50204995273123L103.42883544649396,92.49283342411691L103.60563687460764,90.67674923466355L103.78243830272129,77.17926586889335L103.95923973083495,48.5538408265854L104.13604115894863,74.34772733715015L104.31284258706229,47.18081821646689L104.66644544328963,60.40765687510893L104.8432468714033,83.22538722121516L105.02004829951694,89.15543501923129L105.55045258385795,94.03330666229888L105.72725401197161,75.16147691443776L106.08085686819894,82.70435130725642L106.61126115253994,88.3592444730168L106.7880625806536,76.23525386125603L106.96486400876726,81.54977113936108L107.14166543688094,66.31307484709464L107.31846686499459,93.55389995111103L107.49526829310825,89.83559320937287L107.67206972122192,73.05416657786047L107.8488711493356,86.43761233241611L108.02567257744926,85.2628182673451L108.20247400556292,99.99230538424392L108.37927543367658,77.13155832435251L108.73287828990391,57.294341244674214L108.90967971801759,40.88755938056926L109.08648114613125,36.012476630322965L109.26328257424491,36.91508231975979L109.44008400235856,49.69777398128153L109.61688543047224,31.080504314489758L109.7936868585859,49.09774912833075L110.14728971481324,37.40473583964652L110.3240911429269,64.76247993947378L110.50089257104057,102.8543041153173L110.67769399915422,112.20980115182803L111.7385025678362,120.75750046543801L112.09210542406355,153.41849866043177L112.26890685217721,150.53876966588635L112.44570828029087,117.85307844686432L112.62250970840455,120.14970833088886L112.79931113651821,150.91988196202922L112.97611256463186,149.41108025231964L113.15291399274554,120.03462264624041L113.3297154208592,140.24348357590515L113.50651684897286,127.20544837585564L113.68331827708653,135.18172233484918L113.8601197052002,103.40086945311371L114.03692113331385,121.41597465415705L114.21372256142752,136.66884781234037L114.3905239895412,113.21797525500808L114.56732541765486,98.73860177556534L114.74412684576852,86.18413233266486L114.92092827388218,120.41721806283692L115.27453113010951,108.09795388319101L115.45133255822317,93.39669834356141L115.62813398633685,85.93970477824783L115.98173684256417,69.75730236764842L116.15853827067784,83.45034999548226L116.3353396987915,106.59002677250574L116.51214112690516,92.17174508786565L116.68894255501883,110.39142332536176L116.8657439831325,107.2824375569807L117.04254541124617,91.35825296606298L117.21934683935983,65.08069394696143L117.39614826747349,68.00778212179534L117.57294969558716,73.03869144515592L117.74975112370082,54.44015052263782L117.92655255181448,94.6729152170578L118.10335397992816,112.56610752575689L118.28015540804182,101.66203009369399L118.45695683615548,47.32804244184294L118.63375826426915,101.50314916066856L118.81055969238281,89.1308197662628L118.98736112049647,85.84361533307965L119.16416254861014,95.47949459131674L119.34096397672381,80.9598886896889L119.69456683295114,101.18256239471481L119.8713682610648,114.63539094864893L120.04816968917847,144.17742268262663L120.22497111729213,115.78405876017723L120.40177254540579,117.63004220345293L120.57857397351947,98.5374721707578L120.75537540163313,65.49715650999694L120.93217682974678,50.7097964644491L121.10897825786046,51.670922393456536L121.28577968597412,55.8258801796501L121.46258111408778,36.981769906439126L121.63938254220145,89.90444369575114L121.81618397031512,93.83350753096514L121.99298539842879,87.53693462551823L122.34658825465611,67.92581373076864L122.52338968276977,95.22315727652422L122.70019111088344,63.12320352007981L122.87699253899711,48.308448234697124L123.05379396711078,65.65681682394212L123.23059539522443,40.425427285353976L123.40739682333809,13.930181306924112L123.58419825145177,37.5157736470338L123.76099967956543,37.05366785238601L123.93780110767908,94.9509966423556L124.11460253579277,117.04696948979065L124.29140396390642,95.4668060146206L124.4682053920201,68.86622161538484L124.64500682013374,89.55348494175337L124.82180824824744,127.97069282210208L124.99860967636108,156.52546952765798L125.35221253258842,144.24560604559466L125.70581538881575,120.46190592565071L125.88261681692941,61.495467398727186L126.05941824504306,29.389090856261134L126.23621967315674,16.44417028721432L126.58982252938408,49.91471813803753L127.29702824183872,61.45520741035625L127.4738296699524,53.408227637198905L127.65063109806604,49.13266539823118L127.82743252617973,73.46579372348438L128.0042339542934,65.81370129245265L128.18103538240706,68.83547952436048L128.35783681052072,64.90806829347684L128.53463823863436,37.18507058115523L129.06504252297538,58.12234145580899L129.24184395108904,72.30506592780667L129.41864537920273,71.54860070285186L129.59544680731636,52.50375427414167L129.94904966354372,107.54446448949687L130.12585109165735,150.40408063098502L130.30265251977104,146.1258009624469L130.65625537599834,151.01859776547332L130.83305680411203,131.5953048004727L131.00985823222567,96.28151289446468L131.18665966033936,97.3782425380802L131.36346108845302,118.82303847452202L131.54026251656668,100.57157842145575L131.71706394468035,86.41582553714653L131.893865372794,73.0741330380673L132.07066680090767,54.11446816876598L132.24746822902134,56.45131489044218L132.42426965713503,85.6888534881749L132.60107108524866,114.01879996064599L132.77787251336235,163.2477508981628L132.95467394147602,174.84338383856414L133.13147536958965,159.84162174857798L133.30827679770334,136.2748912429166L133.83868108204433,103.10385775746973L134.015482510158,74.2308094409525L134.19228393827166,97.8432408387261L134.36908536638532,95.42467015348217L134.54588679449898,101.56446088078049L134.72268822261265,135.55363682649136L134.89948965072634,174.1366544379593L135.07629107883997,146.79791159387315L135.25309250695364,162.36164972702312L135.42989393506733,164.65316754864406L135.60669536318096,149.6728747716243L135.78349679129465,139.6242584683517L135.96029821940832,144.18758608801247L136.13709964752198,161.70763320725513L136.4907025037493,140.52806841839737L136.66750393186297,142.41679639249145L136.84430535997663,190.23108554290326L137.0211067880903,174.14372478511635L137.19790821620396,165.4524177382701L137.37470964431765,139.24333056258035L137.55151107243128,146.89991869820864L137.72831250054494,126.92704500336336L137.90511392865864,126.7439522128794L138.08191535677227,110.74591822917337L138.25871678488596,115.42017378044412L138.43551821299963,68.89756579449022L138.6123196411133,65.05370983615164L138.78912106922695,71.44249182875917L138.9659224973406,59.20968096387146L139.14272392545428,72.7910390488572L139.31952535356794,87.29035551216988L139.4963267816816,98.78883289330045L139.67312820979527,91.58155994287483L139.84992963790893,103.49488076055601L140.0267310660226,86.93683368144954L140.20353249413625,105.70167331944L140.55713535036358,75.20850790009688L140.91073820659093,55.34038863787606L141.44114249093192,63.549549438290185L141.6179439190456,26.229728045543084L141.79474534715925,74.45810815407769L141.9715467752729,93.01797115697228L142.14834820338658,126.02329554455882L142.32514963150024,149.11763065480352L142.5019510596139,178.6259533224007L142.67875248772756,149.559341591299L142.85555391584126,167.7123910051186L143.0323553439549,160.26939394186672L143.20915677206858,182.34280113340242L143.38595820018224,146.8960734176481L143.56275962829588,130.63619065002362L143.73956105640957,89.50648019374033L144.0931639126369,93.66528954757118L144.26996534075056,85.66355847152077L144.44676676886422,62.50764313577038L144.80036962509155,15.683683509967182L144.9771710532052,9.983913175512129L145.15397248131887,27.483983822849552L145.33077390943257,26.670835785021353L145.5075753375462,26.88869040023556L145.68437676565986,-14.016676028287236L145.86117819377355,81.42998317620672L146.0379796218872,115.44718325148517L146.21478105000088,107.35733713242016L146.5683839062282,119.89880597152347L146.74518533434187,92.44609630680434L146.92198676245553,106.79470381316997L147.0987881905692,79.64395209651539L147.27558961868286,77.7093415224895L147.62919247491018,58.63725380367539L147.80599390302388,71.10254631914874L147.9827953311375,70.83560487959977L148.15959675925117,92.31219962125694L148.33639818736486,77.02521356906207L148.5131996154785,88.42922280075501L148.6900010435922,61.0934302573247L148.86680247170585,53.47628008369355L149.0436038998195,85.15747823454896L149.22040532793318,84.09789467783385L149.39720675604684,61.79649233743301L149.5740081841605,121.5222500649481L149.75080961227417,97.7040221231178L149.92761104038786,97.39915075609757L150.28121389661516,107.5631750346835L150.45801532472882,92.50992814546468L150.63481675284248,73.90068363159989L150.81161818095617,54.847270013759626L150.9884196090698,56.54655137203231L151.1652210371835,76.68922175138816L151.34202246529716,112.02600850759893L151.5188238934108,99.11180234821191L151.6956253215245,53.993058614735276L152.04922817775181,53.75623070282627L152.22602960586548,23.30495914296182L152.5796324620928,90.31796769005732L152.75643389020647,43.157685893253614L152.93323531832016,65.53333364409102L153.1100367464338,75.9678160353747L153.28683817454748,78.92467163189635L153.46363960266112,80.21154267737191L153.64044103077478,83.17655451638568L153.81724245888847,126.78798506488383L153.9940438870021,153.67487809618973L154.1708453151158,171.56886253927678L154.34764674322946,166.8721697735856L154.52444817134312,100.04995537487144L154.7012495994568,84.28260093850591L154.87805102757045,71.50920758191933L155.0548524556841,45.86815364563421L155.40845531191147,39.42606738850387L155.5852567400251,20.851458653853456L155.7620581681388,67.0943621787956L155.93885959625246,54.15528658431816L156.1156610243661,47.62588715408549L156.29246245247978,56.376814483075265L156.46926388059342,60.13834035368896L156.6460653087071,47.64280233669746L156.82286673682077,41.02533526900217L156.9996681649344,76.78527357551629L157.1764695930481,67.51478475237037L157.35327102116176,80.35006842128023L157.53007244927542,84.35278185471465L157.70687387738909,83.14556361259353L157.88367530550278,77.00123745736836L158.0604767336164,92.27633833710114L158.23727816173007,79.75386303452755L158.41407958984377,51.176148232537585L158.5908810179574,51.98354693812115L158.7676824460711,74.56433610433524L158.94448387418475,91.49165706034498L159.12128530229842,100.22609066670967L159.29808673041208,94.10217703903658L159.6516895866394,116.29559645454988L159.82849101475307,114.95575740037941L160.00529244286673,110.01301628598323L160.1820938709804,80.87304026528209L160.3588952990941,133.7420159708655L160.53569672720772,149.4546674594763L160.71249815532138,109.2411478348604L160.88929958343508,111.76219026612385L161.2429024396624,132.80424780717544L161.41970386777606,115.15270317842146L161.5965052958897,110.2672101781485L161.7733067240034,131.50718057046254L161.95010815211702,149.990507854878L162.12690958023072,169.07546971610105L162.30371100834438,145.06341950593057L162.48051243645804,188.87686808164793L162.6573138645717,170.4529036045158L162.83411529268537,126.75208321820944L163.01091672079903,107.8320455738521L163.36451957702639,101.22663092243191L163.54132100514002,112.43262871732507L163.7181224332537,131.99503427595164L163.89492386136737,128.19958563968083L164.2485267175947,138.78238359101945L164.42532814570836,106.26818055856434L164.60212957382203,123.5242279928764L164.7789310019357,113.50370777495081L164.95573243004935,129.4115878787578L165.13253385816301,122.67619387899441L165.30933528627668,91.07947105749257L165.48613671439034,87.28978885032096L165.662938142504,86.04689051553149L165.8397395706177,100.37581285173674L166.01654099873133,104.32820984757987L166.193342426845,108.52980157471764L166.37014385495868,121.03017868256961L166.723746711186,118.05215663039095L166.90054813929967,144.9738841380966L167.254150995527,131.542142461718L167.43095242364066,115.92581412893288L167.60775385175432,132.9113262881708L167.784555279868,99.83903762530895L168.1381581360953,80.9260254307582L168.314959564209,88.35599460516188L168.49176099232264,52.13744856023956L168.6685624204363,35.35832367272076L169.02216527666363,86.4811675673624L169.37576813289098,84.77578910984242L169.7293709891183,98.03818575434848L169.90617241723197,97.20491699921976L170.08297384534563,105.09494423318363L170.2597752734593,54.97888479181913L170.43657670157296,60.21703238170495L170.7901795578003,51.56799192752196L170.96698098591395,34.16015025820187L171.1437824140276,29.736191098190858L171.3205838421413,2.008451431452187L171.49738527025494,8.698467108677988L171.67418669836863,41.53727541976522L171.8509881264823,38.84779629826056L172.20459098270962,52.527737666611046L172.38139241082328,68.68852277735206L172.55819383893694,53.64563257681054L172.7349952670506,49.59153040545655L172.91179669516427,64.73701358388547L173.08859812327793,56.17438337245238L173.2653995513916,40.80039992740316L173.44220097950526,38.619671637723826L173.61900240761892,38.30187361610672L173.7958038357326,28.887195141307814L173.97260526384625,35.60244129263842L174.14940669195994,25.109325540858748L174.3262081200736,19.196389294414047L174.50300954818724,22.617021625023654L174.67981097630093,54.22078811862451L174.8566124044146,55.89985786071854L175.03341383252825,82.30427963009659L175.21021526064192,112.94830086743497L175.38701668875558,102.97669357853133L175.56381811686924,95.71474711063676L175.7406195449829,93.5431675686237L175.91742097309657,64.19571886297929L176.09422240121023,47.22673375950916L176.27102382932392,56.25760956151579L176.44782525743756,53.46170009901573L176.62462668555122,62.50289435712146L176.8014281136649,64.37115537606141L176.97822954177855,74.39424484285978L177.3318323980059,86.08807173102598L177.50863382611956,67.4498534585354L177.68543525423323,97.8107211271722L177.8622366823469,128.94741930720875L178.03903811046055,66.44304974402422L178.21583953857422,82.45888729108455L178.3926409666879,75.35018236774309L178.56944239480154,48.86309087089904L178.74624382291523,70.7944884543747L178.92304525102887,94.05717851210908L179.09984667914253,47.7379235293281L179.27664810725622,69.3758809841759L179.63025096348355,124.51093097695573L179.8070523915972,150.94792788072792L179.98385381971084,145.5037828990272L180.16065524782454,148.13332270704333L180.51425810405186,149.77929347322146L180.69105953216553,133.23965178977414L180.86786096027922,126.62281010626435L181.04466238839285,125.33905720512377L181.2214638165065,143.89394377517013L181.39826524462018,138.44337033385577L181.75186810084753,83.70967725778208L181.92866952896117,67.84036895966047L182.28227238518852,55.020970997024094L182.45907381330215,49.2975287408762L182.63587524141585,34.85794385722332L182.8126766695295,73.58297975972943L182.98947809764317,127.33565430263693L183.16627952575683,144.32179982303612L183.51988238198416,140.74180157426417L183.69668381009782,133.74350108431923L183.87348523821152,154.46190160651656L184.22708809443884,123.00637024458365L184.40388952255248,104.11216015514583L184.58069095066614,109.75401050178074L184.75749237877983,121.42822389584913L184.93429380689346,108.82911270025133L185.28789666312082,109.79869112317587L185.46469809123448,134.49609730248304L185.64149951934814,131.81900077973455L185.99510237557547,150.35378344414312L186.17190380368913,143.91958607023804L186.34870523180282,148.19940154239762L186.52550665991646,158.97627035802262L186.70230808803015,128.82542328353867L186.8791095161438,124.30997896336382L187.05591094425745,96.218006704607L187.23271237237114,96.80864993728872L187.40951380048477,48.71176755859844L187.58631522859847,78.98084487340329L187.76311665671213,54.34290415403116L187.93991808482576,51.97967792651097L188.11671951293945,0.8807253921260951L188.29352094105312,40.81183346339316L188.47032236916678,65.19922575532479L188.64712379728044,46.197603947988625L188.82392522539413,44.5298429227299L189.17752808162143,49.14048991094586L189.53113093784876,33.20292436253101L189.70793236596245,82.64609555417667L190.06153522218978,77.95367301497963L190.23833665030344,73.46836357946046L190.41513807841707,81.56123872321781L190.59193950653076,55.34944962771742L190.76874093464443,88.6889486584166L190.9455423627581,134.1465520770667L191.12234379087175,130.75167871185224L191.29914521898544,126.20741062859156L191.47594664709908,92.79938436464107L191.65274807521274,85.65102733339613L191.82954950332643,73.73883347603321L192.00635093144007,69.35449954977682L192.35995378766742,60.0739770185497L192.53675521578106,79.68462237234141L192.71355664389475,35.461293690715905L192.89035807200838,63.746643617668425L193.06715950012207,55.43946013411663L193.24396092823574,38.238277181712306L193.59756378446306,-12.642416362571964L193.9511666406904,7.8066642654328575L194.12796806880405,-9.346355348401062L194.48157092503138,13.599221020129534L194.65837235314507,46.9966019349836L194.83517378125873,29.913344668432586L195.01197520937237,61.83211494405643L195.18877663748606,47.99043881718734L195.36557806559972,91.21647975520682L195.54237949371338,108.08603104065672L195.8959823499407,100.57869295273754L196.07278377805437,147.05860994927164L196.24958520616804,109.14453370014486L196.60318806239536,102.94827890605984L196.77998949050905,77.28708093665307L196.9567909186227,89.27759073297521L197.13359234673635,65.98210255298252L197.48719520296368,135.85320888512874L197.66399663107737,132.38619379426353L197.84079805919103,120.08443783650755L198.0175994873047,115.21440782086765L198.19440091541836,96.54590990020542L198.37120234353202,97.75368202966648L198.54800377164568,99.02406069379387L198.72480519975934,78.19034034660072L198.901606627873,106.0583727242194L199.07840805598667,137.36232398677225L199.25520948410036,111.44479461222191L199.432010912214,156.4442343380274L199.78561376844135,136.69070346743933L199.96241519655499,66.9702320533742L200.13921662466868,93.17419091191998L200.31601805278234,104.82842139486135L200.492819480896,105.46317486283125L200.66962090900967,126.09477860585736L200.84642233712333,112.90652025708444L201.023223765237,132.22663286956714L201.20002519335065,121.22989514307471L201.37682662146432,90.4710642746397L201.55362804957798,107.24276426126804L201.73042947769164,109.26883066261986L201.9072309058053,98.90825219655434L202.08403233391897,81.85067081689003L202.26083376203266,74.3247886163827L202.4376351901463,81.53497012569564L202.61443661826,99.22205873566047L202.96803947448728,110.0437597124609L203.14484090260098,108.74173650895283L203.32164233071464,104.95849440683638L203.4984437588283,81.22054849886075L203.67524518694196,102.73938053980342L203.85204661505563,107.89186409343128L204.20564947128295,100.28517412599733L204.38245089939662,133.19337727217618L204.55925232751028,79.48290936214758L204.73605375562397,73.52754221619756L204.9128551837376,58.72736466434911L205.62006089619229,64.91215455183348L205.79686232430595,62.827167370141865L205.9736637524196,55.76120682150412L206.15046518053327,40.982685380434845L206.32726660864694,40.25208170232278L206.5040680367606,89.26960874349152L206.68086946487426,86.53248583457403L206.85767089298793,94.98168524916399L207.0344723211016,82.09369110205819L207.21127374921528,103.0406935153088L207.38807517732891,77.40590978676768L207.56487660544258,77.32919877185843L207.74167803355627,46.343303142531624L207.9184794616699,15.273777954306354L208.0952808897836,31.18977410565762L208.27208231789726,53.14909949549005L208.44888374601092,51.057183649566426L208.62568517412458,91.24978597452021L208.80248660223825,78.99836678781878L208.9792880303519,73.94875844861129L209.15608945846557,115.68597954955538L209.33289088657926,152.35828174322256L209.5096923146929,132.6500870668833L209.6864937428066,133.6848694017646L209.86329517092022,122.0846841376661L210.21689802714758,135.54632705108986L210.5705008833749,146.5405393237522L210.74730231148857,193.48839534013524L211.1009051677159,195.5410809494469L211.27770659582956,122.74098019962881L211.63130945205688,107.14347447470472L211.9849123082842,95.90412660435291L212.16171373639787,55.33743507207481L212.33851516451153,78.08330248219804L212.5153165926252,113.99311507391357L212.86891944885252,108.35143576125363L213.04572087696621,99.45061148945909L213.22252230507988,113.62784005369386L213.3993237331935,123.5675076522503L213.5761251613072,115.00783904999597L213.75292658942087,115.68928933648934L213.92972801753453,119.81805015229818L214.1065294456482,108.63492681487753L214.28333087376188,104.2799233597405L214.46013230187552,64.93377064787168L214.81373515810287,52.17253017003897L214.9905365862165,35.333701082483145L215.1673380143302,42.44401397538985L215.6977422986712,94.52404583076496L215.87454372678482,85.15112229023971L216.0513451548985,70.93560409421802L216.22814658301218,71.84494445022078L216.40494801112584,75.49995507979051L216.5817494392395,132.54561305651347L216.75855086735316,121.93892818566523L216.93535229546683,156.47816214158345L217.1121537235805,143.26465282936596L217.28895515169418,110.93062166859116L217.46575657980782,89.03431169805829L217.6425580079215,99.392340253729L217.81935943603517,115.52857791307139L218.1729622922625,125.3323535004377L218.34976372037613,89.13002840953665L218.52656514848982,96.9681150947616L218.88016800471712,114.04775263844913L219.0569694328308,90.18824556426355L219.23377086094447,71.18902902164788L219.41057228905814,70.42110070466222L219.5873737171718,87.63564629807944L219.7641751452855,119.05994022189746L219.94097657339913,135.95971940585252L220.1177780015128,135.48680908100204L220.29457942962648,84.52929156389112L220.47138085774012,109.5041292934673L220.6481822858538,112.93868465369484L221.00178514208113,114.4592167913818L221.1785865701948,116.89809772585065L221.35538799830843,132.38816949187344L221.53218942642212,130.03216190299716L221.70899085453578,82.23595767021098L221.88579228264945,79.53863518066603L222.0625937107631,92.13599547263533L222.2393951388768,100.84137342002398L222.41619656699044,81.07591074706075L222.5929979951041,80.40514038891257L222.7697994232178,104.72688879468146L222.94660085133143,90.29081882005894L223.12340227944512,97.22408879145581L223.30020370755878,117.13707375088664L223.6538065637861,86.40860673358259L223.83060799189974,92.63982574923082L224.00740942001343,68.82332290616779L224.1842108481271,61.85822859994222L224.36101227624076,100.53873844766962L224.53781370435442,85.81644316290755L224.71461513246808,80.76626826181511L224.89141656058175,108.06931704213817" fill="none"></path></g></g></g></g><g opacity="0.2"><g><g><g><path style="fill: none;" stroke="rgb(204, 51, 17)" stroke-width="2px" d="M17.856944239480157,100.9785912378308L18.03374566759382,92.02341764024416L18.38734852382115,94.59305339502114L18.564149951934812,91.40213493435138L18.740951380048482,52.27861414720424L18.917752808162145,34.17495484232077L19.09455423627581,95.43104485398432L19.271355664389475,78.58908172285551L19.448157092503138,95.18365845232034L19.6249585206168,108.16839004175206L19.80175994873047,120.11808208258842L19.978561376844134,135.67258325989144L20.1553628049578,139.72341387660748L20.332164233071463,53.37905579542128L20.508965661185126,105.27203201492198L20.685767089298793,165.67227451738634L20.86256851741246,101.575946768521L21.039369945526126,127.79043312814818L21.21617137363979,95.78191178001825L21.39297280175345,150.66804692158556L21.569774229867118,122.2080243385079L21.74657565798078,85.62332898821589L21.923377086094447,155.06663565732725L22.100178514208114,169.7150798035075L22.276979942321777,109.18705113505712L22.453781370435443,150.71214279259195L22.630582798549106,110.45415571751023L23.160987082890102,-16.628807743693017L23.33778851100377,42.395562274917694L23.514589939117432,80.00773269456107L23.691391367231095,44.215338572754405L23.86819279534476,188.8271160012223L24.22179565157209,74.65447409277648L24.398597079685757,59.837280767776875L24.57539850779942,85.57804297247509L24.752199935913087,112.09754077288106L24.92900136402675,123.0316013913301L25.282604220254083,94.14973611912102L25.459405648367746,-61.14070493657357L25.636207076481412,41.00359257923279L25.813008504595075,16.825462480404553L25.989809932708738,86.48927643493285L26.166611360822408,99.16613139160135L26.520214217049734,162.19363817925566L26.6970156451634,230.18197351447387L27.227419929504396,204.85253432977174L27.40422135761806,32.071362386625L27.581022785731726,138.32919733662612L27.75782421384539,103.1631510184296L27.93462564195905,123.13643033261556L28.288228498186385,173.91252011394474L28.46502992630005,166.75755617335437L28.641831354413714,18.77799500105158L28.818632782527377,52.45078324648591L28.995434210641044,48.902833003159344L29.172235638754707,43.05881581503232L29.349037066868373,133.92923690864816L29.52583849498204,157.88325359903115L29.702639923095703,69.31739339060177L29.87944135120937,132.6175732763057L30.056242779323032,66.73695788699642L30.40984563555036,101.34046062618978L30.586647063664028,6.673351003614897L30.763448491777694,268.30238073465546L30.940249919891357,87.0008152276416L31.117051348005024,49.66027090453608L31.293852776118683,36.985390858833284L31.470654204232353,-8.07693353266643L31.64745563234602,5.449975317944364L31.82425706045968,-0.9240860945763245L32.17785991668701,118.95007372991986L32.35466134480068,165.73041937199793L32.70826420102801,-303.9172213996468L32.88506562914167,60.615486462015525L33.061867057255334,100.0717567625047L33.238668485369004,51.740134946570464L33.41546991348267,113.53668023359951L33.59227134159633,-113.32414784891586L33.94587419782366,35.58943642823584L34.122675625937326,-159.26610557573395L34.29947705405099,30.3515892802381L34.47627848216466,-88.05663343091521L34.829881338391985,233.64359093807158L35.00668276650565,48.59888214116276L35.36028562273298,164.82906240397878L35.537087050846644,279.60128898846943L35.713888478960314,325.55743535081723L35.89068990707397,151.95719245694565L36.06749133518764,-91.82956913137116L36.2442927633013,47.609643768740824L36.421094191414966,-38.7885765080388L36.597895619528636,50.88041907906252L36.7746970476423,-23.817319179925533L36.95149847575597,132.07003842421182L37.128299903869625,109.90818419112678L37.305101331983295,-4.491789326780065L38.012307044437954,252.7603132336975L38.18910847255162,54.76124985639085L38.36590990066528,26.390576574611345L38.54271132877895,258.2892011991154L38.71951275689261,163.98751370016086L38.896314185006275,69.53400593901306L39.073115613119946,129.5702410451916L39.2499170412336,154.98941124645222L39.42671846934727,215.97526392238268L39.60351989746094,45.4081335903345L39.780321325574604,69.34417242296959L39.95712275368827,-28.73741164903342L40.13392418180193,148.1104274390682L40.3107256099156,212.80387423166687L40.841129894256596,207.1380528992079L41.371534178597585,73.74313666721939L41.54833560671125,48.65048507895534L41.90193846293858,395.05436525556235L42.7859456035069,-195.95806601755004L42.96274703162057,57.16395811411924L43.139548459734236,282.6739913192019L43.3163498878479,183.8577108858837L43.49315131596156,117.87787280421378L43.66995274407523,316.70320541310946L44.02355560030256,178.27861029516612L44.20035702841623,123.91582306821252L44.37715845652989,68.76932786119477L44.553959884643554,-125.97564395570436L44.90756274087089,75.85242536974691L45.08436416898455,137.87673130798288L45.26116559709821,-83.54910378055541L45.43796702521188,164.99159862384573L45.61476845332554,67.10166664628086L45.79156988143921,86.36571551550713L45.96837130955288,103.79440273816094L46.321974165780205,247.36853242438232L46.49877559389387,66.6513481538989L46.85237845012119,-15.389977245043951L47.029179878234864,175.99308551897775L47.38278273446219,2.7563379643354438L47.55958416257586,44.40544518589468L47.73638559068952,138.24239280373004L48.089988446916855,23.39603587433615L48.26678987503052,37.5224797469742L48.44359130314418,107.42082630728183L48.797194159371514,153.03848317124894L48.97399558748518,121.63998703220867L49.15079701559884,232.9646715554036L49.32759844371251,19.952871125029674L49.681201299939836,241.6825391472727L49.8580027280535,11.90532656403127L50.03480415616717,47.41238077031369L50.21160558428083,134.10232460725547L50.388407012394495,164.56435062939195L50.565208440508165,33.19906098712926L50.74200986862182,217.5788776613426L50.91881129673549,71.9969538302206L51.095612724849154,105.09355530371684L51.272414152962824,124.43525995309605L51.44921558107649,0.007938436064051757L51.62601700919015,118.925958945934L52.156421293531146,117.86202386247055L52.863627005985805,105.90756232049033L53.04042843409947,95.79823398661676L53.21722986221313,-169.33229077506383L53.3940312903268,50.38052725685748L53.57083271844047,8.219452976687677L53.74763414655413,159.28882228878672L54.10123700278146,-59.210913955988104L54.27803843089512,67.88115093147275L54.45483985900879,-75.49990201671955L54.631641287122456,160.9171202812469L54.80844271523612,134.5018873835202L55.33884699957711,125.38469132028195L55.51564842769078,157.99551512607638L55.69244985580445,338.00165076112745L56.22285414014544,250.22977070765359L56.39965556825911,153.87744055602326L56.57645699637277,-25.79511318202742L56.75325842448643,116.66819386896105L56.9300598526001,47.26700001352813L57.10686128071376,-44.89607032706482L57.28366270882743,229.7790311616361L57.637265565054754,115.60838006895852L57.814066993168424,223.87135752294373L57.99086842128209,7.235639305688693L58.34447127750941,226.2913826193107L58.52127270562308,67.81912064998384L58.698074133736746,78.61275427574711L58.87487556185041,273.39770223187975L59.05167698996408,-73.30556684385667L59.22847841807774,58.00816641125496L59.405279846191405,127.52448155480936L59.75888270241874,202.3551793077423L59.9356841305324,44.852306517301116L60.289286986759734,-156.45397511587078L60.99649269921439,244.04904962616945L61.173294127328056,94.8873969804558L61.35009555544172,130.16320311663884L61.52689698355539,-2.532106627598381L61.703698411669045,121.29217460410123L61.880499839782715,151.76653964961173L62.057301267896385,110.61595410970938L62.23410269601005,86.71774077667042L62.41090412412372,203.85694644984895L62.58770555223737,-121.98274095727288L62.76450698035104,49.65347761425298L62.94130840846471,97.6143591624717L63.11810983657837,224.10250938838402L63.4717126928057,20.609204136441065L63.64851412091936,61.02001464004043L63.82531554903302,67.39986384898783L64.0021169771467,86.57515926512716L64.35571983337402,126.9702480654034L64.53252126148769,48.50494294661257L64.70932268960136,131.14708506191204L65.06292554582868,-142.6665688754171L65.41652840205602,155.60286801366456L65.77013125828334,37.974666471768444L65.946932686397,70.92180780059552L66.12373411451067,-78.6727316739458L66.30053554262433,160.7216820679666L66.47733697073801,120.02741229475967L66.83093982696533,302.7686370779888L67.007741255079,323.5206772028133L67.18454268319266,72.34862530650851L67.36134411130632,158.6469696302584L67.53814553941999,178.8381924532806L68.95255696432932,-172.83473621463452L69.30615982055664,147.82588509120166L69.4829612486703,116.39015930077647L69.83656410489763,-13.666858699221166L70.0133655330113,50.08069767832184L70.19016696112497,-35.93610215887426L70.36696838923864,-11.185188140001685L70.54376981735228,73.76220691335455L70.72057124546596,138.3493785914051L70.89737267357962,167.86940272873932L71.07417410169329,268.3810947660586L71.25097552980695,87.0799358013138L71.42777695792063,76.30063201469275L71.60457838603429,13.902206329148783L72.13498267037528,28.121577695728405L72.31178409848894,75.47951593911795L72.4885855266026,-37.04068060743276L72.66538695471628,161.3513322516693L72.84218838282993,124.73953666958312L73.19579123905727,37.53422912888922L73.37259266717093,149.87408538688666L73.5493940952846,104.8518118096079L73.72619552339827,-43.17012150223874L74.25659980773925,185.3044551697355L74.43340123585293,79.24341616005843L74.61020266396659,-144.07982152439655L74.78700409208025,141.21186753524466L74.96380552019393,126.4005380393862L75.14060694830758,199.47949791210118L75.31740837642124,27.62170449377996L75.4942098045349,76.49419268543247L75.67101123264858,17.907696621042277L75.84781266076224,-21.209155010865715L76.02461408887591,171.61826864416287L76.20141551698958,235.02310368209066L76.37821694510323,231.02286430255856L76.73181980133056,22.989915664371892L77.0854226575579,103.16528808079653L77.26222408567156,-115.17390896663176L77.43902551378523,-102.39370964621963L77.61582694189889,110.98811873007432L77.79262837001255,2.6923153153902604L77.96942979812623,168.52638744913173L78.14623122623989,-8.238346330385099L78.32303265435355,168.34318895119029L78.4998340824672,248.22824208513805L78.67663551058088,106.86023787946688L78.85343693869454,117.84756988828428L79.0302383668082,177.58149271504715L79.20703979492188,110.93769662688786L79.38384122303555,265.6640517499026L79.56064265114921,89.49915324405072L79.73744407926286,193.8529839413262L79.91424550737653,179.8779041345947L80.0910469354902,51.224704520232166L80.26784836360386,77.51905471210753L80.44464979171754,57.871403729899384L80.6214512198312,9.03070031626416L80.79825264794485,30.189388224989955L80.97505407605851,127.26540240784422L81.15185550417219,172.9235486318674L81.32865693228585,74.72585484645502L81.50545836039952,87.42405676355014L81.68225978851319,206.78954376316602L82.0358626447405,279.0020146500346L82.21266407285418,146.4700169696893L82.38946550096784,284.0755628605405L82.56626692908151,216.9370374163187L82.74306835719517,80.92245590344338L82.91986978530885,28.757006365729495L83.27347264153616,66.11614301505074L83.45027406964984,-69.01441698870062L83.6270754977635,80.05126685449335L83.80387692587716,163.70794296080672L83.98067835399083,214.85547893093366L84.1574797821045,220.210528180728L84.33428121021815,149.55079428503421L84.51108263833181,-100.85534128638835L84.68788406644549,80.71705740456981L84.86468549455915,206.42291091069953L85.74869263512747,-29.886405616336646L85.92549406324115,26.01943141329528L86.10229549135481,47.2750067238664L86.27909691946847,138.34748242860792L86.45589834758213,73.02944705872582L86.80950120380946,93.40083095033151L86.98630263192312,2.491464814191403L87.1631040600368,120.67102301584869L87.33990548815046,325.4829046703971L87.69350834437779,57.932537135695384L87.87030977249145,54.3757484772357L88.04711120060512,-18.69477486755116L88.22391262871878,250.10230884447003L88.40071405683246,110.91252669502795L88.75431691305978,282.86407931208555L88.93111834117344,179.39927043867536L89.10791976928711,109.5266566850678L89.46152262551443,61.71041030752659L89.63832405362811,211.8111538712606L89.99192690985542,75.09062256988538L90.34552976608276,153.82144944442516L90.52233119419643,-3.7153742805512024L90.69913262231009,125.37644720167201L91.05273547853743,272.56290647445564L91.22953690665108,132.30562501409915L91.40633833476475,188.59155113496763L91.75994119099208,14.99373818458244L91.93674261910576,74.99237588930822L92.11354404721942,-132.20004815917355L92.29034547533307,346.05890888931924L92.46714690344673,74.96667993519934L92.64394833156041,64.81292987582886L92.82074975967407,40.845283157614205L93.17435261590141,-168.92723812647802L93.52795547212872,138.34463973610025L93.88155832835606,113.35941539076147L94.23516118458339,95.51177258855435L94.76556546892438,198.29546062187558L94.94236689703806,187.65641702147494L95.29596975326538,15.930299851081202L95.47277118137904,152.30340819804957L95.64957260949272,-2.0154751947093814L95.82637403760637,-17.509297610815054L96.00317546572003,19.72846599923102L96.35677832194737,-28.976818494899987L96.53357975006104,99.7427033700979L96.7103811781747,25.24221569603256L96.88718260628836,92.3961556093436L97.06398403440203,124.31511429906848L97.24078546251569,-4.493390668847724L97.59438831874303,244.7868338467042L97.77118974685669,78.49216794231336L97.94799117497035,-57.544400990231225L98.12479260308402,238.44201865055092L98.30159403119768,124.98190879131334L98.65519688742502,58.98872464072491L98.83199831553868,60.9255571816815L99.00879974365235,35.4886822197698L99.18560117176601,118.34534520798908L99.36240259987967,113.95940738491947L99.53920402799334,47.02458909959665L99.716005456107,-121.54759797402045L100.42321116856166,315.2346381885218L100.60001259667533,83.11563351702091L100.77681402478899,84.24474570533879L100.95361545290265,-19.76139281965314L101.13041688101633,90.55281149755868L101.30721830913,30.663559266077357L101.48401973724364,-7.252242367824294L101.66082116535732,33.95190278850177L101.83762259347098,12.634439951742337L102.19122544969831,100.2418897561232L102.36802687781199,57.33158697416647L102.89843116215297,49.367495299876L103.07523259026664,91.99479830584897L103.2520340183803,278.1706326063206L103.42883544649396,36.4559673096596L103.60563687460764,83.41241247685015L103.78243830272129,23.189332405812507L103.95923973083495,-65.94785934264641L104.13604115894863,177.52327337940915L104.31284258706229,-61.48681826626614L104.66644544328963,113.31501150967713L104.8432468714033,174.49630860564005L105.02004829951694,112.87562621129584L105.55045258385795,113.54479323456923L105.72725401197161,-0.3258420770067403L106.08085686819894,112.87584887853102L106.61126115253994,110.97881713605828L106.7880625806536,27.73929141421297L106.96486400876726,102.8078402517813L107.14166543688094,5.36628967802892L107.31846686499459,202.51720036717663L107.49526829310825,74.96236624242019L107.67206972122192,5.928460051810902L107.8488711493356,139.97139535063866L108.02567257744926,80.56364200706108L108.20247400556292,158.9102538518392L108.37927543367658,-14.311429915213154L108.90967971801759,-24.739568075850627L109.08648114613125,16.51214562933785L109.26328257424491,40.52550507750709L109.44008400235856,100.82854062736834L109.61688543047224,-43.38857435267738L109.7936868585859,121.1667283836947L110.14728971481324,-9.367317315090446L110.3240911429269,174.19345633878294L110.50089257104057,255.2216008186915L110.67769399915422,149.6317892978709L111.7385025678362,154.948297719878L112.09210542406355,284.06249144040686L112.26890685217721,139.01985368770468L112.44570828029087,-12.889686429223815L112.62250970840455,129.33622786698703L112.79931113651821,274.0005764865907L112.97611256463186,143.3758734134812L113.15291399274554,2.5287922219234815L113.3297154208592,221.07892729456404L113.50651684897286,75.0533075756577L113.68331827708653,167.08681817082342L113.8601197052002,-23.722542073828293L114.21372256142752,197.6803404450736L114.3905239895412,19.414485025678914L114.56732541765486,40.821107857794374L114.74412684576852,35.9662545610629L114.92092827388218,257.3495609835253L115.27453113010951,58.82089716460729L115.45133255822317,34.59167618504301L115.62813398633685,56.11173051699343L115.98173684256417,5.027692725250773L116.15853827067784,138.22254050681767L116.3353396987915,199.1487338805997L116.51214112690516,34.49861834930522L116.68894255501883,183.27013627534626L116.8657439831325,94.84649448345641L117.04254541124617,27.661514602392117L117.21934683935983,-40.02954212944476L117.39614826747349,79.71613482113096L117.57294969558716,93.16232873859812L117.74975112370082,-19.95401316743451L118.10335397992816,184.1388767605533L118.28015540804182,58.045720365442335L118.45695683615548,-170.00790816556133L118.63375826426915,318.2035760359711L118.81055969238281,39.64150218863972L118.98736112049647,72.69479760034702L119.16416254861014,134.02301162426505L119.34096397672381,22.881465083177602L119.69456683295114,182.07325721481843L119.8713682610648,168.44670516438543L120.04816968917847,262.3455496185374L120.22497111729213,2.2106030703796193L120.40177254540579,125.01397597655574L120.57857397351947,22.167192039977238L120.75537540163313,-66.66410613304643L120.93217682974678,-8.43964371774237L121.10897825786046,55.515426109486384L121.28577968597412,72.44571132442422L121.46258111408778,-38.394671186404594L121.63938254220145,301.5951388529991L121.81618397031512,109.54976287182114L121.99298539842879,62.350643003730625L122.34658825465611,-10.518669848229734L122.87699253899711,-10.950572906833685L123.05379396711078,135.0502911809221L123.23059539522443,-60.5001308689985L123.40739682333809,-92.05080260679551L123.58419825145177,131.85814300747268L123.76099967956543,35.20524467379494L123.93780110767908,326.540311802234L124.11460253579277,205.43086087953085L124.29140396390642,9.146152113940303L124.4682053920201,-37.53611598155808L124.64500682013374,172.3025382472274L124.82180824824744,281.639524343497L124.99860967636108,270.74457634988164L125.35221253258842,95.12615211734136L125.70581538881575,25.32710544587485L125.88261681692941,-174.37028670896694L126.58982252938408,183.79690954133042L127.29702824183872,107.61716449963113L127.4738296699524,21.22030854456952L127.65063109806604,32.030416442360206L127.82743252617973,170.79830702449726L128.0042339542934,35.20533156832573L128.18103538240706,80.92259245199178L128.35783681052072,49.19842336994225L128.53463823863436,-73.70692026813117L129.06504252297538,141.87142495442407L129.24184395108904,129.03596381579737L129.41864537920273,68.52273980303256L129.59544680731636,-23.675631440699107L130.12585109165735,321.84254519693764L130.30265251977104,129.0126822882944L130.65625537599834,170.58978497757894L130.83305680411203,53.90213294047024L131.00985823222567,-44.97365472956744L131.18665966033936,101.76516111254224L131.36346108845302,204.60222222028938L131.54026251656668,27.56573820919064L131.71706394468035,29.79281399990964L131.893865372794,19.707363041750284L132.07066680090767,-21.724191308439288L132.24746822902134,65.79870177714699L132.42426965713503,202.6390078791058L132.95467394147602,221.22591560016946L133.13147536958965,99.83457338863336L133.30827679770334,42.007969220271065L133.83868108204433,-29.580276184317768L134.19228393827166,192.29296642982055L134.36908536638532,85.75038741250643L134.54588679449898,126.12362378997376L134.72268822261265,271.51034060933495L134.89948965072634,328.468724883831L135.07629107883997,37.4429402175285L135.25309250695364,224.61660225962316L135.42989393506733,173.81923883512775L135.60669536318096,89.75170366354527L135.78349679129465,99.42979325526133L135.96029821940832,162.44089656665548L136.13709964752198,231.78782168422586L136.4907025037493,55.80980926296634L136.66750393186297,149.9717082888677L136.84430535997663,381.48824214455055L137.0211067880903,109.79428175396862L137.19790821620396,130.68718955088514L137.37470964431765,34.406981859821286L137.55151107243128,177.52627124072185L137.72831250054494,47.03555022398223L137.90511392865864,126.01158105094359L138.08191535677227,46.75378229434921L138.25871678488596,134.1171959855272L138.43551821299963,-117.19286614932548L138.6123196411133,49.67828600279722L138.78912106922695,96.99761979918947L138.9659224973406,10.27843750432055L139.14272392545428,127.11647138880014L139.31952535356794,145.28762136542065L139.4963267816816,144.78274241782273L139.67312820979527,62.75246814117236L139.84992963790893,151.14816403128074L140.0267310660226,20.70464536502371L140.20353249413625,180.76103187140183L140.91073820659093,-24.13208841100709L141.44114249093192,96.38619263994661L141.6179439190456,-123.04955752544532L141.79474534715925,267.37162858821614L141.9715467752729,167.25742316855064L142.14834820338658,258.04459309490505L142.5019510596139,296.6592439927895L142.67875248772756,33.29289466689207L142.85555391584126,240.32458866039718L143.0323553439549,130.49740568885926L143.20915677206858,270.63642989954513L143.38595820018224,5.109162554630728L143.56275962829588,65.5966595795257L143.73956105640957,-75.01236163139288L144.0931639126369,110.30052696289461L144.26996534075056,53.65663416731917L144.44676676886422,-30.116018207231264L144.9771710532052,-12.815168162308112L145.15397248131887,97.48426641219928L145.33077390943257,23.418243633708528L145.5075753375462,27.760108861092476L145.68437676565986,-177.63814174237848L146.0379796218872,251.51598355259904L146.21478105000088,74.99795265616011L146.5683839062282,170.06468132793663L146.74518533434187,-17.364742352072142L146.92198676245553,164.18913383863253L147.0987881905692,-28.959054770102995L147.27558961868286,69.97089922638595L147.62919247491018,-17.65109707158112L147.80599390302388,120.96371638104213L147.9827953311375,69.76783912140384L148.15959675925117,178.21857858788567L148.33639818736486,15.877269360282583L148.5131996154785,134.0452597275267L148.6900010435922,-48.249739916396464L148.86680247170585,23.007679389168914L149.0436038998195,211.88227083797062L149.22040532793318,79.85956045097345L149.39720675604684,-27.409117024170513L149.5740081841605,360.4252809750086L149.75080961227417,2.4311103557965623L149.92761104038786,96.17966528801664L150.28121389661516,148.2192721490272L150.45801532472882,32.29694058858951L150.63481675284248,-0.5362944238593172L150.81161818095617,-21.366384457601498L150.9884196090698,63.34367680512301L151.1652210371835,157.25990326881168L151.34202246529716,253.373155532442L151.5188238934108,47.45497771066374L151.6956253215245,-126.4819163191712L152.04922817775181,52.80891905519033L152.22602960586548,-98.50012709649599L152.75643389020647,-145.48344129396122L152.93323531832016,155.0359246474406L153.1100367464338,117.70574560050946L153.28683817454748,90.75209401798296L153.46363960266112,85.35902685927427L153.64044103077478,95.03660187244073L153.81724245888847,301.2337072588764L154.1708453151158,243.144800311625L154.34764674322946,148.0853987108208L154.52444817134312,-167.23890221998522L154.7012495994568,21.213183193043676L154.87805102757045,20.41563415557306L155.0548524556841,-56.696062099506264L155.40845531191147,13.657722359982472L155.5852567400251,-53.44697628474822L155.7620581681388,252.06597627856422L155.93885959625246,2.398984206408244L156.1156610243661,21.508289433154943L156.29246245247978,91.38052379903426L156.46926388059342,75.18444383614377L156.6460653087071,-2.3393497312686122L156.82286673682077,14.555466998221078L156.9996681649344,219.82502680157285L157.1764695930481,30.43282945978669L157.35327102116176,131.6912030969197L157.53007244927542,100.36363558845237L157.70687387738909,78.31669064410895L157.88367530550278,52.4239328364678L158.0604767336164,153.3767418560322L158.23727816173007,29.66396182423324L158.41407958984377,-63.134710975422365L158.5908810179574,55.21314176045557L158.7676824460711,164.88749276919157L158.94448387418475,159.20094088438393L159.12128530229842,135.1638250921684L159.29808673041208,69.60652252834423L159.6516895866394,205.06927411660314L159.82849101475307,109.59640118369757L160.00529244286673,90.24205182839847L160.1820938709804,-35.68686381752255L160.71249815532138,-51.61293066360324L160.88929958343508,121.84635999117765L161.2429024396624,216.97247797138192L161.41970386777606,44.54652466340548L161.5965052958897,90.72523817705665L161.7733067240034,216.46706213971865L162.12690958023072,245.41531716099328L162.30371100834438,49.0152186652486L162.48051243645804,364.13066238451745L162.6573138645717,96.75704569598724L162.83411529268537,-48.051198327016095L163.01091672079903,32.151894996422755L163.36451957702639,74.80497231675113L163.54132100514002,157.25661989689777L163.7181224332537,210.24465651045793L163.89492386136737,113.01779109459767L164.2485267175947,181.11357539637388L164.60212957382203,192.54841773012467L164.7789310019357,73.42162690324841L164.95573243004935,193.04310829398594L165.13253385816301,95.7346178799407L165.30933528627668,-35.307420228514815L165.48613671439034,72.13106002163448L165.662938142504,81.0752971763736L165.8397395706177,157.69150219655782L166.01654099873133,120.1377978309524L166.193342426845,125.33616848326874L166.37014385495868,171.03168711397743L166.723746711186,106.1400684216763L166.90054813929967,252.66079416891932L167.254150995527,77.81517575620354L167.43095242364066,53.46050079779246L167.60775385175432,200.85337492512247L167.784555279868,-32.450117026138514L168.1381581360953,5.273976652555177L168.314959564209,118.07587130277665L168.49176099232264,-92.73673561944969L169.02216527666363,290.9725431459291L169.37576813289098,77.95427527976248L169.7293709891183,151.08777233237268L169.90617241723197,93.87184197870496L170.08297384534563,136.6550531690391L170.2597752734593,-145.4853529736389L170.43657670157296,81.16962274124826L170.7901795578003,16.971830110789938L170.96698098591395,-35.47121641907842L171.1437824140276,12.04035445814688L171.3205838421413,-108.90250723550258L171.49738527025494,35.458529817581194L171.67418669836863,172.89250866411413L171.8509881264823,28.089879812241946L172.20459098270962,107.24750314001294L172.38139241082328,133.33166322031616L172.55819383893694,-6.5259282253555L172.7349952670506,33.37512172004048L172.91179669516427,125.3189462976012L173.08859812327793,21.923862526720114L173.2653995513916,-20.6955338527938L173.44220097950526,29.896758479006593L173.61900240761892,37.03068152963823L173.7958038357326,-8.77151875788772L173.97260526384625,62.46342589796069L174.14940669195994,-16.863137466259815L174.3262081200736,-4.4553556913648436L174.50300954818724,36.29955094746208L174.67981097630093,180.63585409302797L174.8566124044146,62.6161368290947L175.03341383252825,187.9219667076088L175.21021526064192,235.52438581678857L175.38701668875558,63.090264422916675L175.56381811686924,66.66696123905854L175.7406195449829,84.85684940057149L175.91742097309657,-53.194075959598365L176.09422240121023,-20.649206654371426L176.27102382932392,92.38111276954237L176.44782525743756,42.27806224901548L176.62462668555122,98.66767138954448L176.8014281136649,71.8441994518212L176.97822954177855,114.48660271005326L177.3318323980059,132.86337928369068L177.50863382611956,-7.1030196314267755L178.03903811046055,-183.57442850871382L178.21583953857422,146.52223747932578L178.3926409666879,46.91536267437732L178.56944239480154,-57.08527511647716L178.74624382291523,158.5200787882773L178.92304525102887,187.10793874304662L179.09984667914253,-137.53909640179575L179.27664810725622,155.92771080356704L179.63025096348355,345.05113094807524L179.8070523915972,256.6959154958166L179.98385381971084,123.72720297222418L180.16065524782454,158.65148193910798L180.51425810405186,156.3631765379339L180.69105953216553,67.08108505598496L180.86786096027922,100.15544337222519L181.04466238839285,120.20404560056136L181.2214638165065,218.11349005535564L181.39826524462018,116.64107656859832L181.75186810084753,-135.22509504651276L181.92866952896117,4.363135767174072L182.28227238518852,3.7433791464785315L182.45907381330215,26.40375971628461L182.63587524141585,-22.900395677388246L183.16627952575683,212.2663819046329L183.51988238198416,126.42180857917633L183.69668381009782,105.75029912453948L183.87348523821152,237.335503695306L184.22708809443884,-2.815755203148086L184.40388952255248,28.53531979739452L184.58069095066614,132.3214118883204L184.75749237877983,168.12507747212265L184.93429380689346,58.432667917860144L185.28789666312082,113.67700481487398L185.46469809123448,233.28572201971178L185.64149951934814,121.11061468874064L185.99510237557547,224.49291410177733L186.17190380368913,118.18279657461773L186.34870523180282,165.3186634310359L186.52550665991646,202.08374562052265L186.70230808803015,8.22203498560296L186.8791095161438,106.24820168266437L187.05591094425745,-16.149882330420297L187.23271237237114,99.17122286801559L187.40951380048477,-143.67576195616272L187.76311665671213,-44.208858723457354L187.93991808482576,42.526773016430155L188.11671951293945,-203.5150847454135L188.29352094105312,200.53626574846146L188.47032236916678,162.7487949230514L188.64712379728044,-29.808883281355975L188.82392522539413,37.858798821694876L189.17752808162143,67.58307786380978L189.53113093784876,-30.547337831128402L189.70793236596245,280.4187803207593L190.06153522218978,59.18398285819137L190.23833665030344,55.52712583738379L190.41513807841707,113.93273929824724L190.59193950653076,-49.49770675428425L190.9455423627581,315.9769657516671L191.12234379087175,117.17218525099435L191.29914521898544,108.03033829554893L191.47594664709908,-40.83272069116097L191.65274807521274,57.05759920841642L191.82954950332643,26.090058046581504L192.00635093144007,51.81716384475119L192.35995378766742,22.951886893641216L192.53675521578106,158.12720378750828L192.71355664389475,-141.4320210357862L192.89035807200838,176.88804332547846L193.06715950012207,22.210726199909516L193.24396092823574,-30.566454627905017L193.59756378446306,-216.16519053970916L193.9511666406904,89.60298677745209L194.12796806880405,-77.95843380373663L194.48157092503138,105.38152649425194L194.65837235314507,180.58612559439987L195.36557806559972,264.1206435072848L195.54237949371338,175.5642361824563L195.8959823499407,70.5493406010608L196.07278377805437,332.9782779354081L196.24958520616804,-42.51177129636227L196.60318806239536,78.16325972971971L196.77998949050905,-25.3577109409741L196.9567909186227,137.23962991826383L197.13359234673635,-27.19985016698817L197.48719520296368,415.33763421371367L197.66399663107737,118.51813343080272L197.84079805919103,70.8774140054835L198.0175994873047,95.73428775830804L198.19440091541836,21.871918217556555L198.37120234353202,102.58477054751073L198.54800377164568,104.10557535030347L198.72480519975934,-5.144541042171966L199.07840805598667,262.57812903698374L199.25520948410036,7.7746771140205055L199.432010912214,336.4419932412494L199.78561376844135,57.676579985086946L199.96241519655499,-211.91165360288642L200.13921662466868,197.99002634610315L200.31601805278234,151.44534332662687L200.492819480896,108.0021887347109L200.66962090900967,208.62119357796172L200.84642233712333,60.15348686199275L201.023223765237,209.50708331949795L201.20002519335065,77.24294423710501L201.37682662146432,-32.564259199100434L201.55362804957798,174.32956420778137L201.73042947769164,117.37309626802715L201.9072309058053,57.465938332292254L202.08403233391897,13.620345298232763L202.26083376203266,44.2212598143534L202.4376351901463,110.37569616294735L202.61443661826,169.9704131755198L202.96803947448728,153.3305636196626L203.14484090260098,103.53364369492061L203.32164233071464,89.82552599837055L203.4984437588283,-13.731235133041764L203.67524518694196,188.81470870357407L203.85204661505563,128.50179830794275L204.20564947128295,69.85841425626153L204.38245089939662,264.8261898568917L204.55925232751028,-135.35896227796695L204.73605375562397,49.70607363239756L204.9128551837376,-0.47334554304475773L205.62006089619229,89.65131410177099L205.79686232430595,54.487218643375414L205.9736637524196,27.49736462695313L206.15046518053327,-18.131400383842305L206.32726660864694,37.329666989874625L206.5040680367606,285.33971690816645L206.68086946487426,75.58399419890411L206.85767089298793,128.7784829075238L207.0344723211016,30.541714513634986L207.21127374921528,186.82870316831128L207.38807517732891,-25.133225127396827L207.56487660544258,77.02235471222144L207.74167803355627,-77.60027937477562L207.9184794616699,-109.00432279859484L208.0952808897836,94.85375871106274L208.27208231789726,140.9864010548198L208.44888374601092,42.68952026587192L208.62568517412458,252.02019527433546L208.80248660223825,29.992690041013077L208.9792880303519,53.75032509178136L209.15608945846557,282.6348639533318L209.33289088657926,299.04749051789145L209.5096923146929,53.817308361526045L209.6864937428066,137.82399874128987L209.86329517092022,75.68394308127216L210.21689802714758,189.39289870478478L211.27770659582956,-168.45942279964368L211.63130945205688,44.75345157500837L211.9849123082842,50.9467351229457L212.16171373639787,-106.92933105703764L212.33851516451153,169.066772122691L212.5153165926252,257.63236544077574L212.86891944885252,85.78471851061384L213.04572087696621,63.847314402280915L213.22252230507988,170.33675431063293L213.3993237331935,163.3261780464761L213.5761251613072,80.76916464097866L213.75292658942087,118.41509048246286L213.92972801753453,136.3330934155336L214.1065294456482,63.9024334651949L214.28333087376188,86.85990953919237L214.46013230187552,-92.45084019960359L214.81373515810287,1.1275682587080667L214.9905365862165,-32.021615267740316L215.1673380143302,70.88526554701676L215.6977422986712,302.84417325226536L215.87454372678482,47.6594281281387L216.0513451548985,14.073531310131244L216.22814658301218,75.48230587423194L216.40494801112584,90.11999759806936L216.5817494392395,360.72824496340536L216.75855086735316,79.51218870227225L216.93535229546683,294.6350979652564L217.1121537235805,90.41061558049584L217.28895515169418,-18.405502974508067L217.46575657980782,1.4490718159268283L217.6425580079215,140.82445447641186L217.81935943603517,180.07352855044098L218.1729622922625,164.54745584990297L218.34976372037613,-55.67927195406759L218.52656514848982,128.32046183566138L218.88016800471712,182.3663028131992L219.23377086094447,-4.807837148814855L219.41057228905814,67.34938743671961L219.5873737171718,156.49382867174836L219.7641751452855,244.7571159171696L219.94097657339913,203.55883614167277L220.1177780015128,133.59516778160008L220.29457942962648,-119.30077850455257L220.47138085774012,209.40348021177203L220.6481822858538,126.67690609460504L221.00178514208113,120.54134534212966L221.1785865701948,126.65362146372594L221.35538799830843,194.3484565559647L221.53218942642212,120.608131547492L221.70899085453578,-108.94885926093372L221.88579228264945,68.74934522248617L222.0625937107631,142.5254366405126L222.2393951388768,135.66288520957863L222.41619656699044,2.0140600552077217L222.5929979951041,77.72205895631987L222.7697994232178,202.01388241775706L222.94660085133143,32.54653892156881L223.12340227944512,124.95716867704331L223.30020370755878,196.78901358860998L223.6538065637861,-36.50526133563372L223.83060799189974,117.5647018118238L224.00740942001343,-26.44268846608435L224.1842108481271,33.99785137503994L224.36101227624076,255.26077783857926L224.53781370435442,26.927262023859242L224.71461513246808,60.565568657445326L224.89141656058175,217.28151216343045" fill="none"></path></g></g></g></g></g></g><g transform="translate(82, 177)" clip-path="url(#clip_1)"><clipPath id="clip_1"><rect width="247" height="22"></rect></clipPath><g><g><line x1="0" y1="0" x2="0" y2="5" style="visibility: inherit;" fill="rgb(0, 0, 0)" stroke="rgb(204, 204, 204)" stroke-width="1px"></line><line x1="17.68014281136649" y1="0" x2="17.68014281136649" y2="5" style="visibility: inherit;" fill="rgb(0, 0, 0)" stroke="rgb(204, 204, 204)" stroke-width="1px"></line><line x1="35.36028562273298" y1="0" x2="35.36028562273298" y2="5" style="visibility: inherit;" fill="rgb(0, 0, 0)" stroke="rgb(204, 204, 204)" stroke-width="1px"></line><line x1="53.04042843409947" y1="0" x2="53.04042843409947" y2="5" style="visibility: inherit;" fill="rgb(0, 0, 0)" stroke="rgb(204, 204, 204)" stroke-width="1px"></line><line x1="70.72057124546596" y1="0" x2="70.72057124546596" y2="5" style="visibility: inherit;" fill="rgb(0, 0, 0)" stroke="rgb(204, 204, 204)" stroke-width="1px"></line><line x1="88.40071405683246" y1="0" x2="88.40071405683246" y2="5" style="visibility: inherit;" fill="rgb(0, 0, 0)" stroke="rgb(204, 204, 204)" stroke-width="1px"></line><line x1="106.08085686819894" y1="0" x2="106.08085686819894" y2="5" style="visibility: inherit;" fill="rgb(0, 0, 0)" stroke="rgb(204, 204, 204)" stroke-width="1px"></line><line x1="123.76099967956543" y1="0" x2="123.76099967956543" y2="5" style="visibility: inherit;" fill="rgb(0, 0, 0)" stroke="rgb(204, 204, 204)" stroke-width="1px"></line><line x1="141.44114249093192" y1="0" x2="141.44114249093192" y2="5" style="visibility: inherit;" fill="rgb(0, 0, 0)" stroke="rgb(204, 204, 204)" stroke-width="1px"></line><line x1="159.12128530229842" y1="0" x2="159.12128530229842" y2="5" style="visibility: inherit;" fill="rgb(0, 0, 0)" stroke="rgb(204, 204, 204)" stroke-width="1px"></line><line x1="176.8014281136649" y1="0" x2="176.8014281136649" y2="5" style="visibility: inherit;" fill="rgb(0, 0, 0)" stroke="rgb(204, 204, 204)" stroke-width="1px"></line><line x1="194.48157092503138" y1="0" x2="194.48157092503138" y2="5" style="visibility: inherit;" fill="rgb(0, 0, 0)" stroke="rgb(204, 204, 204)" stroke-width="1px"></line><line x1="212.16171373639787" y1="0" x2="212.16171373639787" y2="5" style="visibility: inherit;" fill="rgb(0, 0, 0)" stroke="rgb(204, 204, 204)" stroke-width="1px"></line><line x1="229.84185654776437" y1="0" x2="229.84185654776437" y2="5" style="visibility: inherit;" fill="rgb(0, 0, 0)" stroke="rgb(204, 204, 204)" stroke-width="1px"></line><line x1="247.52199935913086" y1="0" x2="247.52199935913086" y2="5" style="visibility: inherit;" fill="rgb(0, 0, 0)" stroke="rgb(204, 204, 204)" stroke-width="1px"></line></g><g transform="translate(0, 8)"><text style="text-anchor: middle; visibility: hidden; font-family: &quot;Helvetica Neue&quot;, sans-serif; font-size: 12px; font-weight: 200;" x="0" y="0" dx="0em" dy="0.95em" fill="rgb(50, 49, 63)" stroke="none" stroke-width="1px">-100</text><text style="text-anchor: middle; visibility: inherit; font-family: &quot;Helvetica Neue&quot;, sans-serif; font-size: 12px; font-weight: 200;" x="17.68014281136649" y="0" dx="0em" dy="0.95em" fill="rgb(50, 49, 63)" stroke="none" stroke-width="1px">0</text><text style="text-anchor: middle; visibility: hidden; font-family: &quot;Helvetica Neue&quot;, sans-serif; font-size: 12px; font-weight: 200;" x="35.36028562273298" y="0" dx="0em" dy="0.95em" fill="rgb(50, 49, 63)" stroke="none" stroke-width="1px">100</text><text style="text-anchor: middle; visibility: inherit; font-family: &quot;Helvetica Neue&quot;, sans-serif; font-size: 12px; font-weight: 200;" x="53.04042843409947" y="0" dx="0em" dy="0.95em" fill="rgb(50, 49, 63)" stroke="none" stroke-width="1px">200</text><text style="text-anchor: middle; visibility: hidden; font-family: &quot;Helvetica Neue&quot;, sans-serif; font-size: 12px; font-weight: 200;" x="70.72057124546596" y="0" dx="0em" dy="0.95em" fill="rgb(50, 49, 63)" stroke="none" stroke-width="1px">300</text><text style="text-anchor: middle; visibility: inherit; font-family: &quot;Helvetica Neue&quot;, sans-serif; font-size: 12px; font-weight: 200;" x="88.40071405683246" y="0" dx="0em" dy="0.95em" fill="rgb(50, 49, 63)" stroke="none" stroke-width="1px">400</text><text style="text-anchor: middle; visibility: hidden; font-family: &quot;Helvetica Neue&quot;, sans-serif; font-size: 12px; font-weight: 200;" x="106.08085686819894" y="0" dx="0em" dy="0.95em" fill="rgb(50, 49, 63)" stroke="none" stroke-width="1px">500</text><text style="text-anchor: middle; visibility: inherit; font-family: &quot;Helvetica Neue&quot;, sans-serif; font-size: 12px; font-weight: 200;" x="123.76099967956543" y="0" dx="0em" dy="0.95em" fill="rgb(50, 49, 63)" stroke="none" stroke-width="1px">600</text><text style="text-anchor: middle; visibility: hidden; font-family: &quot;Helvetica Neue&quot;, sans-serif; font-size: 12px; font-weight: 200;" x="141.44114249093192" y="0" dx="0em" dy="0.95em" fill="rgb(50, 49, 63)" stroke="none" stroke-width="1px">700</text><text style="text-anchor: middle; visibility: inherit; font-family: &quot;Helvetica Neue&quot;, sans-serif; font-size: 12px; font-weight: 200;" x="159.12128530229842" y="0" dx="0em" dy="0.95em" fill="rgb(50, 49, 63)" stroke="none" stroke-width="1px">800</text><text style="text-anchor: middle; visibility: hidden; font-family: &quot;Helvetica Neue&quot;, sans-serif; font-size: 12px; font-weight: 200;" x="176.8014281136649" y="0" dx="0em" dy="0.95em" fill="rgb(50, 49, 63)" stroke="none" stroke-width="1px">900</text><text style="text-anchor: middle; visibility: inherit; font-family: &quot;Helvetica Neue&quot;, sans-serif; font-size: 12px; font-weight: 200;" x="194.48157092503138" y="0" dx="0em" dy="0.95em" fill="rgb(50, 49, 63)" stroke="none" stroke-width="1px">1k</text><text style="text-anchor: middle; visibility: hidden; font-family: &quot;Helvetica Neue&quot;, sans-serif; font-size: 12px; font-weight: 200;" x="212.16171373639787" y="0" dx="0em" dy="0.95em" fill="rgb(50, 49, 63)" stroke="none" stroke-width="1px">1.1k</text><text style="text-anchor: middle; visibility: inherit; font-family: &quot;Helvetica Neue&quot;, sans-serif; font-size: 12px; font-weight: 200;" x="229.84185654776437" y="0" dx="0em" dy="0.95em" fill="rgb(50, 49, 63)" stroke="none" stroke-width="1px">1.2k</text><text style="text-anchor: middle; visibility: hidden; font-family: &quot;Helvetica Neue&quot;, sans-serif; font-size: 12px; font-weight: 200;" x="247.52199935913086" y="0" dx="0em" dy="0.95em" fill="rgb(50, 49, 63)" stroke="none" stroke-width="1px">1.3k</text></g><line x1="0" y1="0" x2="247.52199935913086" y2="0" fill="rgb(0, 0, 0)" stroke="rgb(204, 204, 204)" stroke-width="1px"></line></g></g></g></g></svg>